<svg width="90" height="91" viewBox="0 0 90 91" fill="none" xmlns="http://www.w3.org/2000/svg">
<rect width="90" height="90" rx="45" fill="#D9D9D9"/>
<path d="M36.2499 76.4168C21.6666 80.7918 21.6666 69.1251 15.8333 67.6668M56.6666 85.1668V73.8793C56.776 72.4885 56.5881 71.0904 56.1154 69.7778C55.6427 68.4653 54.896 67.2684 53.9249 66.2668C63.0833 65.2459 72.7083 61.7751 72.7083 45.8501C72.7075 41.7779 71.1411 37.8619 68.3333 34.9126C69.6628 31.3499 69.5688 27.412 68.0708 23.9168C68.0708 23.9168 64.6291 22.8959 56.6666 28.2334C49.9816 26.4217 42.9349 26.4217 36.2499 28.2334C28.2874 22.8959 24.8458 23.9168 24.8458 23.9168C23.3477 27.412 23.2537 31.3499 24.5833 34.9126C21.7545 37.8838 20.1864 41.8352 20.2083 45.9376C20.2083 61.7459 29.8333 65.2168 38.9916 66.3543C38.032 67.3459 37.2919 68.5284 36.8196 69.8249C36.3472 71.1214 36.1531 72.5028 36.2499 73.8793V85.1668" stroke="black" stroke-width="4" stroke-linecap="round" stroke-linejoin="round"/>
</svg>
