<svg width="90" height="90" viewBox="0 0 90 90" fill="none" xmlns="http://www.w3.org/2000/svg">
<rect width="90" height="90" rx="45" fill="#D9D9D9"/>
<path d="M59.75 33.25H59.775M33.5 22H58.5C65.4036 22 71 27.5964 71 34.5V59.5C71 66.4036 65.4036 72 58.5 72H33.5C26.5964 72 21 66.4036 21 59.5V34.5C21 27.5964 26.5964 22 33.5 22ZM56 45.425C56.3085 47.5056 55.9531 49.6305 54.9844 51.4975C54.0156 53.3645 52.4829 54.8785 50.6041 55.8242C48.7253 56.7698 46.5961 57.099 44.5195 56.7648C42.4428 56.4307 40.5244 55.4502 39.0371 53.9629C37.5498 52.4756 36.5693 50.5572 36.2352 48.4805C35.901 46.4039 36.2302 44.2747 37.1758 42.3959C38.1215 40.5171 39.6355 38.9844 41.5025 38.0156C43.3695 37.0469 45.4944 36.6915 47.575 37C49.6973 37.3147 51.6621 38.3037 53.1792 39.8208C54.6963 41.3379 55.6853 43.3027 56 45.425Z" stroke="black" stroke-width="5" stroke-linecap="round" stroke-linejoin="round"/>
</svg>
