<svg width="90" height="90" viewBox="0 0 90 90" fill="none" xmlns="http://www.w3.org/2000/svg">
<rect width="90" height="90" rx="45" fill="#D9D9D9"/>
<path fill-rule="evenodd" clip-rule="evenodd" d="M27.5 18.125C25.6766 18.125 23.928 18.8493 22.6386 20.1386C21.3493 21.428 20.625 23.1766 20.625 25C20.625 26.8234 21.3493 28.572 22.6386 29.8614C23.928 31.1507 25.6766 31.875 27.5 31.875C29.3234 31.875 31.072 31.1507 32.3614 29.8614C33.6507 28.572 34.375 26.8234 34.375 25C34.375 23.1766 33.6507 21.428 32.3614 20.1386C31.072 18.8493 29.3234 18.125 27.5 18.125ZM24.375 25C24.375 24.1712 24.7042 23.3763 25.2903 22.7903C25.8763 22.2042 26.6712 21.875 27.5 21.875C28.3288 21.875 29.1237 22.2042 29.7097 22.7903C30.2958 23.3763 30.625 24.1712 30.625 25C30.625 25.8288 30.2958 26.6237 29.7097 27.2097C29.1237 27.7958 28.3288 28.125 27.5 28.125C26.6712 28.125 25.8763 27.7958 25.2903 27.2097C24.7042 26.6237 24.375 25.8288 24.375 25ZM20.625 35C20.625 34.5027 20.8225 34.0258 21.1742 33.6742C21.5258 33.3225 22.0027 33.125 22.5 33.125H32.5C32.9973 33.125 33.4742 33.3225 33.8258 33.6742C34.1775 34.0258 34.375 34.5027 34.375 35V67.5C34.375 67.9973 34.1775 68.4742 33.8258 68.8258C33.4742 69.1775 32.9973 69.375 32.5 69.375H22.5C22.0027 69.375 21.5258 69.1775 21.1742 68.8258C20.8225 68.4742 20.625 67.9973 20.625 67.5V35ZM24.375 36.875V65.625H30.625V36.875H24.375ZM38.125 35C38.125 34.5027 38.3225 34.0258 38.6742 33.6742C39.0258 33.3225 39.5027 33.125 40 33.125H50C50.4973 33.125 50.9742 33.3225 51.3258 33.6742C51.6775 34.0258 51.875 34.5027 51.875 35V36.085L52.9625 35.6175C54.8376 34.8165 56.8268 34.3146 58.8575 34.13C65.795 33.5 71.875 38.95 71.875 45.95V67.5C71.875 67.9973 71.6775 68.4742 71.3258 68.8258C70.9742 69.1775 70.4973 69.375 70 69.375H60C59.5027 69.375 59.0258 69.1775 58.6742 68.8258C58.3225 68.4742 58.125 67.9973 58.125 67.5V50C58.125 49.1712 57.7958 48.3763 57.2097 47.7903C56.6237 47.2042 55.8288 46.875 55 46.875C54.1712 46.875 53.3763 47.2042 52.7903 47.7903C52.2042 48.3763 51.875 49.1712 51.875 50V67.5C51.875 67.9973 51.6775 68.4742 51.3258 68.8258C50.9742 69.1775 50.4973 69.375 50 69.375H40C39.5027 69.375 39.0258 69.1775 38.6742 68.8258C38.3225 68.4742 38.125 67.9973 38.125 67.5V35ZM41.875 36.875V65.625H48.125V50C48.125 48.1766 48.8493 46.428 50.1386 45.1386C51.428 43.8493 53.1766 43.125 55 43.125C56.8234 43.125 58.572 43.8493 59.8614 45.1386C61.1507 46.428 61.875 48.1766 61.875 50V65.625H68.125V45.95C68.125 41.19 63.9725 37.43 59.2 37.865C57.5604 38.0138 55.9542 38.4187 54.44 39.065L50.74 40.6525C50.4546 40.7751 50.1433 40.8249 49.8339 40.7973C49.5245 40.7698 49.2268 40.6659 48.9675 40.4948C48.7083 40.3238 48.4956 40.0911 48.3485 39.8175C48.2014 39.5439 48.1246 39.2381 48.125 38.9275V36.875H41.875Z" fill="black"/>
</svg>
